<mxfile host="app.diagrams.net" modified="2024-05-03T07:10:23.798Z" agent="Mozilla/5.0 (Windows NT 10.0; Win64; x64) AppleWebKit/537.36 (KHTML, like Gecko) Chrome/124.0.0.0 Safari/537.36 Edg/124.0.0.0" etag="QprqDBQPgDderGgjy9-9" version="24.3.1" type="github">
  <diagram id="C5RBs43oDa-KdzZeNtuy" name="Page-1">
    <mxGraphModel dx="1999" dy="1853" grid="1" gridSize="10" guides="1" tooltips="1" connect="1" arrows="1" fold="1" page="1" pageScale="1" pageWidth="827" pageHeight="1169" math="0" shadow="0">
      <root>
        <mxCell id="WIyWlLk6GJQsqaUBKTNV-0" />
        <mxCell id="WIyWlLk6GJQsqaUBKTNV-1" parent="WIyWlLk6GJQsqaUBKTNV-0" />
        <mxCell id="Sq359-iOevKqMSrBk4Uz-28" value="" style="rounded=1;whiteSpace=wrap;html=1;" parent="WIyWlLk6GJQsqaUBKTNV-1" vertex="1">
          <mxGeometry x="-400" y="-1060" width="490" height="300" as="geometry" />
        </mxCell>
        <mxCell id="Sq359-iOevKqMSrBk4Uz-27" value="" style="rounded=1;whiteSpace=wrap;html=1;" parent="WIyWlLk6GJQsqaUBKTNV-1" vertex="1">
          <mxGeometry x="-710" y="-1060" width="250" height="350" as="geometry" />
        </mxCell>
        <mxCell id="wCvYwDocIVwtugDmygxU-4" value="TestShellScript" style="swimlane;fontStyle=1;align=center;verticalAlign=top;childLayout=stackLayout;horizontal=1;startSize=26;horizontalStack=0;resizeParent=1;resizeParentMax=0;resizeLast=0;collapsible=1;marginBottom=0;whiteSpace=wrap;html=1;" vertex="1" parent="WIyWlLk6GJQsqaUBKTNV-1">
          <mxGeometry x="-670" y="-1043" width="160" height="60" as="geometry" />
        </mxCell>
        <mxCell id="wCvYwDocIVwtugDmygxU-6" value="" style="line;strokeWidth=1;fillColor=none;align=left;verticalAlign=middle;spacingTop=-1;spacingLeft=3;spacingRight=3;rotatable=0;labelPosition=right;points=[];portConstraint=eastwest;strokeColor=inherit;" vertex="1" parent="wCvYwDocIVwtugDmygxU-4">
          <mxGeometry y="26" width="160" height="8" as="geometry" />
        </mxCell>
        <mxCell id="wCvYwDocIVwtugDmygxU-7" value="+ &lt;i&gt;main(String[] args)&lt;/i&gt;" style="text;strokeColor=none;fillColor=none;align=left;verticalAlign=top;spacingLeft=4;spacingRight=4;overflow=hidden;rotatable=0;points=[[0,0.5],[1,0.5]];portConstraint=eastwest;whiteSpace=wrap;html=1;" vertex="1" parent="wCvYwDocIVwtugDmygxU-4">
          <mxGeometry y="34" width="160" height="26" as="geometry" />
        </mxCell>
        <mxCell id="wCvYwDocIVwtugDmygxU-8" value="DeviceDriver" style="swimlane;fontStyle=1;align=center;verticalAlign=top;childLayout=stackLayout;horizontal=1;startSize=26;horizontalStack=0;resizeParent=1;resizeParentMax=0;resizeLast=0;collapsible=1;marginBottom=0;whiteSpace=wrap;html=1;" vertex="1" parent="WIyWlLk6GJQsqaUBKTNV-1">
          <mxGeometry x="-360" y="-1030" width="180" height="130" as="geometry" />
        </mxCell>
        <mxCell id="wCvYwDocIVwtugDmygxU-9" value="- ssdInterface: SSDInterface" style="text;strokeColor=none;fillColor=none;align=left;verticalAlign=top;spacingLeft=4;spacingRight=4;overflow=hidden;rotatable=0;points=[[0,0.5],[1,0.5]];portConstraint=eastwest;whiteSpace=wrap;html=1;" vertex="1" parent="wCvYwDocIVwtugDmygxU-8">
          <mxGeometry y="26" width="180" height="26" as="geometry" />
        </mxCell>
        <mxCell id="wCvYwDocIVwtugDmygxU-10" value="" style="line;strokeWidth=1;fillColor=none;align=left;verticalAlign=middle;spacingTop=-1;spacingLeft=3;spacingRight=3;rotatable=0;labelPosition=right;points=[];portConstraint=eastwest;strokeColor=inherit;" vertex="1" parent="wCvYwDocIVwtugDmygxU-8">
          <mxGeometry y="52" width="180" height="8" as="geometry" />
        </mxCell>
        <mxCell id="wCvYwDocIVwtugDmygxU-11" value="+ DeviceDriver(SSDInterface)&lt;div&gt;+ readData(String)&lt;/div&gt;&lt;div&gt;+ writeData(String, String)&lt;/div&gt;" style="text;strokeColor=none;fillColor=none;align=left;verticalAlign=top;spacingLeft=4;spacingRight=4;overflow=hidden;rotatable=0;points=[[0,0.5],[1,0.5]];portConstraint=eastwest;whiteSpace=wrap;html=1;" vertex="1" parent="wCvYwDocIVwtugDmygxU-8">
          <mxGeometry y="60" width="180" height="70" as="geometry" />
        </mxCell>
        <mxCell id="wCvYwDocIVwtugDmygxU-12" value="" style="endArrow=diamondThin;endFill=1;endSize=24;html=1;rounded=0;entryX=0.994;entryY=0.029;entryDx=0;entryDy=0;entryPerimeter=0;exitX=0;exitY=0.5;exitDx=0;exitDy=0;" edge="1" parent="WIyWlLk6GJQsqaUBKTNV-1" source="wCvYwDocIVwtugDmygxU-9" target="wCvYwDocIVwtugDmygxU-18">
          <mxGeometry width="160" relative="1" as="geometry">
            <mxPoint x="-530" y="-950" as="sourcePoint" />
            <mxPoint x="-519.0400000000002" y="-749.3339999999998" as="targetPoint" />
          </mxGeometry>
        </mxCell>
        <mxCell id="wCvYwDocIVwtugDmygxU-15" value="TestShell" style="swimlane;fontStyle=1;align=center;verticalAlign=top;childLayout=stackLayout;horizontal=1;startSize=26;horizontalStack=0;resizeParent=1;resizeParentMax=0;resizeLast=0;collapsible=1;marginBottom=0;whiteSpace=wrap;html=1;" vertex="1" parent="WIyWlLk6GJQsqaUBKTNV-1">
          <mxGeometry x="-670" y="-930" width="160" height="190" as="geometry" />
        </mxCell>
        <mxCell id="wCvYwDocIVwtugDmygxU-16" value="- deviceDriver: DeviceDriver" style="text;strokeColor=none;fillColor=none;align=left;verticalAlign=top;spacingLeft=4;spacingRight=4;overflow=hidden;rotatable=0;points=[[0,0.5],[1,0.5]];portConstraint=eastwest;whiteSpace=wrap;html=1;" vertex="1" parent="wCvYwDocIVwtugDmygxU-15">
          <mxGeometry y="26" width="160" height="26" as="geometry" />
        </mxCell>
        <mxCell id="wCvYwDocIVwtugDmygxU-17" value="" style="line;strokeWidth=1;fillColor=none;align=left;verticalAlign=middle;spacingTop=-1;spacingLeft=3;spacingRight=3;rotatable=0;labelPosition=right;points=[];portConstraint=eastwest;strokeColor=inherit;" vertex="1" parent="wCvYwDocIVwtugDmygxU-15">
          <mxGeometry y="52" width="160" height="8" as="geometry" />
        </mxCell>
        <mxCell id="wCvYwDocIVwtugDmygxU-18" value="+ TestShell(DeviceDriver)+ read(String lba)&lt;br style=&quot;padding: 0px; margin: 0px;&quot;&gt;+ write(String lba, String data)&lt;br style=&quot;padding: 0px; margin: 0px;&quot;&gt;+ fullread()&lt;br style=&quot;padding: 0px; margin: 0px;&quot;&gt;+ fullwrite(String data)&lt;br style=&quot;padding: 0px; margin: 0px;&quot;&gt;+ help()&lt;br style=&quot;padding: 0px; margin: 0px;&quot;&gt;+ exit()" style="text;strokeColor=none;fillColor=none;align=left;verticalAlign=top;spacingLeft=4;spacingRight=4;overflow=hidden;rotatable=0;points=[[0,0.5],[1,0.5]];portConstraint=eastwest;whiteSpace=wrap;html=1;" vertex="1" parent="wCvYwDocIVwtugDmygxU-15">
          <mxGeometry y="60" width="160" height="130" as="geometry" />
        </mxCell>
        <mxCell id="wCvYwDocIVwtugDmygxU-19" value="«interface»&lt;br&gt;&lt;b&gt;SSDInterface&lt;/b&gt;" style="html=1;whiteSpace=wrap;" vertex="1" parent="WIyWlLk6GJQsqaUBKTNV-1">
          <mxGeometry x="-100" y="-1016" width="110" height="50" as="geometry" />
        </mxCell>
        <mxCell id="wCvYwDocIVwtugDmygxU-20" value="SamsungSSD" style="swimlane;fontStyle=1;align=center;verticalAlign=top;childLayout=stackLayout;horizontal=1;startSize=26;horizontalStack=0;resizeParent=1;resizeParentMax=0;resizeLast=0;collapsible=1;marginBottom=0;whiteSpace=wrap;html=1;" vertex="1" parent="WIyWlLk6GJQsqaUBKTNV-1">
          <mxGeometry x="-140" y="-900" width="190" height="110" as="geometry" />
        </mxCell>
        <mxCell id="wCvYwDocIVwtugDmygxU-21" value="+ field: type" style="text;strokeColor=none;fillColor=none;align=left;verticalAlign=top;spacingLeft=4;spacingRight=4;overflow=hidden;rotatable=0;points=[[0,0.5],[1,0.5]];portConstraint=eastwest;whiteSpace=wrap;html=1;" vertex="1" parent="wCvYwDocIVwtugDmygxU-20">
          <mxGeometry y="26" width="190" height="26" as="geometry" />
        </mxCell>
        <mxCell id="wCvYwDocIVwtugDmygxU-22" value="" style="line;strokeWidth=1;fillColor=none;align=left;verticalAlign=middle;spacingTop=-1;spacingLeft=3;spacingRight=3;rotatable=0;labelPosition=right;points=[];portConstraint=eastwest;strokeColor=inherit;" vertex="1" parent="wCvYwDocIVwtugDmygxU-20">
          <mxGeometry y="52" width="190" height="8" as="geometry" />
        </mxCell>
        <mxCell id="wCvYwDocIVwtugDmygxU-23" value="+ read(String lba)&lt;div&gt;+ write(String lba, String data)&lt;/div&gt;" style="text;strokeColor=none;fillColor=none;align=left;verticalAlign=top;spacingLeft=4;spacingRight=4;overflow=hidden;rotatable=0;points=[[0,0.5],[1,0.5]];portConstraint=eastwest;whiteSpace=wrap;html=1;" vertex="1" parent="wCvYwDocIVwtugDmygxU-20">
          <mxGeometry y="60" width="190" height="50" as="geometry" />
        </mxCell>
        <mxCell id="wCvYwDocIVwtugDmygxU-24" value="" style="endArrow=block;dashed=1;endFill=0;endSize=12;html=1;rounded=0;entryX=0.5;entryY=1;entryDx=0;entryDy=0;exitX=0.5;exitY=0;exitDx=0;exitDy=0;" edge="1" parent="WIyWlLk6GJQsqaUBKTNV-1" source="wCvYwDocIVwtugDmygxU-20" target="wCvYwDocIVwtugDmygxU-19">
          <mxGeometry width="160" relative="1" as="geometry">
            <mxPoint x="-250" y="-950" as="sourcePoint" />
            <mxPoint x="-90" y="-950" as="targetPoint" />
          </mxGeometry>
        </mxCell>
        <mxCell id="wCvYwDocIVwtugDmygxU-25" value="" style="endArrow=block;startArrow=none;endFill=1;startFill=0;html=1;rounded=0;entryX=0;entryY=0.5;entryDx=0;entryDy=0;exitX=1;exitY=0.5;exitDx=0;exitDy=0;" edge="1" parent="WIyWlLk6GJQsqaUBKTNV-1" source="wCvYwDocIVwtugDmygxU-9" target="wCvYwDocIVwtugDmygxU-19">
          <mxGeometry width="160" relative="1" as="geometry">
            <mxPoint x="-250" y="-950" as="sourcePoint" />
            <mxPoint x="-90" y="-950" as="targetPoint" />
          </mxGeometry>
        </mxCell>
        <mxCell id="wCvYwDocIVwtugDmygxU-26" value="" style="endArrow=diamondThin;endFill=1;endSize=24;html=1;rounded=0;entryX=0.511;entryY=1.077;entryDx=0;entryDy=0;entryPerimeter=0;exitX=0.5;exitY=0;exitDx=0;exitDy=0;" edge="1" parent="WIyWlLk6GJQsqaUBKTNV-1" source="wCvYwDocIVwtugDmygxU-15" target="wCvYwDocIVwtugDmygxU-7">
          <mxGeometry width="160" relative="1" as="geometry">
            <mxPoint x="-250" y="-950" as="sourcePoint" />
            <mxPoint x="-90" y="-950" as="targetPoint" />
          </mxGeometry>
        </mxCell>
      </root>
    </mxGraphModel>
  </diagram>
</mxfile>
